<?xml version="1.0" encoding="UTF-8" standalone="no"?>
<!-- Created with Inkscape (http://www.inkscape.org/) -->

<svg
   width="171.95135mm"
   height="39.98056mm"
   viewBox="0 0 171.95135 39.98056"
   version="1.1"
   id="svg5"
   inkscape:version="1.2 (dc2aedaf03, 2022-05-15)"
   sodipodi:docname="logo_kestrel.svg"
   xml:space="preserve"
   inkscape:export-filename="logo_big_transparent.png"
   inkscape:export-xdpi="60.476189"
   inkscape:export-ydpi="60.476189"
   xmlns:inkscape="http://www.inkscape.org/namespaces/inkscape"
   xmlns:sodipodi="http://sodipodi.sourceforge.net/DTD/sodipodi-0.dtd"
   xmlns="http://www.w3.org/2000/svg"
   xmlns:svg="http://www.w3.org/2000/svg"><sodipodi:namedview
     id="namedview7"
     pagecolor="#ffffff"
     bordercolor="#000000"
     borderopacity="0.25"
     inkscape:showpageshadow="2"
     inkscape:pageopacity="0"
     inkscape:pagecheckerboard="false"
     inkscape:deskcolor="#ffffff"
     inkscape:document-units="mm"
     showgrid="false"
     inkscape:zoom="0.5946522"
     inkscape:cx="513.74568"
     inkscape:cy="181.61877"
     inkscape:window-width="1680"
     inkscape:window-height="987"
     inkscape:window-x="-8"
     inkscape:window-y="-8"
     inkscape:window-maximized="1"
     inkscape:current-layer="layer1" /><defs
     id="defs2" /><g
     inkscape:groupmode="layer"
     id="layer1"
     inkscape:label="fond_export"
     style="display:none"
     transform="translate(-19.744165,-84.082378)"><rect
       style="fill:#ffffff;fill-opacity:1;stroke-width:0.136123"
       id="rect1632"
       width="176.86282"
       height="43.603912"
       x="16.945009"
       y="82.313522" /></g><g
     inkscape:groupmode="layer"
     id="layer2"
     inkscape:label="Texte"
     style="display:inline"
     transform="translate(-19.744165,-84.082378)"><text
       xml:space="preserve"
       style="font-style:normal;font-variant:normal;font-weight:normal;font-stretch:normal;font-size:50.1964px;font-family:'Maiandra GD';-inkscape-font-specification:'Maiandra GD, Normal';font-variant-ligatures:normal;font-variant-caps:normal;font-variant-numeric:normal;font-variant-east-asian:normal;fill:#2d4c57;fill-opacity:1;stroke-width:0.78432"
       x="49.586758"
       y="123.31894"
       id="text64"
       inkscape:label="nom"
       inkscape:export-filename="logo_transparent.png"
       inkscape:export-xdpi="60.476189"
       inkscape:export-ydpi="60.476189"><tspan
         sodipodi:role="line"
         id="tspan62"
         style="font-style:normal;font-variant:normal;font-weight:normal;font-stretch:normal;font-size:50.1964px;font-family:'Maiandra GD';-inkscape-font-specification:'Maiandra GD, Normal';font-variant-ligatures:normal;font-variant-caps:normal;font-variant-numeric:normal;font-variant-east-asian:normal;fill:#2d4c57;fill-opacity:1;stroke-width:0.78432"
         x="49.586758"
         y="123.31894">Kestrel</tspan></text></g><g
     inkscape:groupmode="layer"
     id="layer3"
     inkscape:label="logo"
     transform="translate(-19.744165,-84.082378)"><path
       id="path1340"
       d="m 19.81361,113.73751 c 0.0378,-5.67876 0.121314,-9.00122 0.185537,-7.38323 0.115884,2.9224 0.124937,2.94775 1.385155,3.86576 1.179273,0.8591 1.605417,0.92844 6.058359,0.98585 3.800678,0.049 5.059938,-0.0681 6.09787,-0.56706 l 1.308041,-0.62894 -2.00461,-2.37335 c -2.989719,-3.53941 -3.744018,-6.84641 -2.777553,-12.176122 0.381518,-2.104078 0.364051,-2.237638 -0.380023,-2.904922 -1.029309,-0.923107 -1.479414,-0.884547 -3.127542,0.267657 -1.235505,0.863674 -1.344252,0.886264 -1.017804,0.21057 0.201093,-0.41613 0.518809,-0.861437 0.705945,-0.989574 0.187139,-0.12813 0.340299,-0.955497 0.340299,-1.838671 0,-1.368214 0.189906,-1.801173 1.283011,-2.926552 2.270245,-2.33692 2.748154,-2.68414 4.189756,-3.042757 2.890984,-0.719364 5.710499,1.117922 7.396008,4.819335 0.369267,0.810857 1.101836,2.218368 1.627995,3.127642 2.429902,4.199426 3.604698,9.707964 3.063206,14.363814 -0.377792,3.24661 -0.318676,3.63708 1.728647,11.43803 0.681555,2.59638 1.239127,4.89613 1.239127,5.11064 0,0.21451 -0.409526,-0.24721 -0.909906,-1.02632 -0.959438,-1.49327 -1.484952,-1.79341 -1.484952,-0.84804 0,1.42595 -0.691676,0.28779 -1.691583,-2.78319 -1.52436,-4.6814 -2.126884,-5.69772 -3.238949,-5.46223 -0.487067,0.10311 -0.885625,0.42338 -0.885625,0.7117 0,0.28832 -0.15039,0.52424 -0.334225,0.52424 -0.383115,0 -3.087065,3.68043 -3.087065,4.2019 0,0.18969 0.731293,0.34477 1.625118,0.34477 1.462692,1.1e-4 1.727794,0.1407 2.651549,1.40699 1.057744,1.4498 2.223914,3.39935 2.223914,3.71728 0,0.0992 -5.0037,0.18021 -11.119572,0.18021 H 19.744165 l 0.06817,-10.32821 z m 16.295925,2.50935 c 0.78423,-1.17234 1.426055,-2.49849 1.426055,-2.9469 0,-1.19268 -0.951982,-2.5003 -1.815559,-2.49391 -0.772193,0.006 -4.526754,1.20856 -4.833714,1.54854 -0.419112,0.46406 1.519891,4.73157 2.434805,5.3587 0.53031,0.36362 1.053909,0.66206 1.1634,0.66312 0.109704,10e-4 0.841424,-0.95752 1.625332,-2.13018 z M 30.693538,89.582301 c 0.815221,-0.902885 0.908099,-2.273445 0.154013,-2.273445 -0.964336,0 -2.548981,1.144549 -2.548981,1.841118 -0.0012,1.404861 1.303673,1.640241 2.394328,0.432427 z m -1.663675,-0.167227 c 0.06795,-0.38194 0.482699,-0.841315 0.921625,-1.020785 1.023021,-0.41826 0.857293,0.316338 -0.256158,1.135072 -0.730653,0.536807 -0.779648,0.528287 -0.66568,-0.115037 z"
       style="display:inline;fill:#f0dbc5;fill-opacity:1;stroke-width:0.106509"
       inkscape:label="bird" /></g></svg>
